<?xml version="1.0" encoding="utf-8"?>
<!-- Generator: Adobe Illustrator 16.0.0, SVG Export Plug-In . SVG Version: 6.00 Build 0)  -->
<!DOCTYPE svg PUBLIC "-//W3C//DTD SVG 1.1//EN" "http://www.w3.org/Graphics/SVG/1.1/DTD/svg11.dtd">
<svg version="1.1" xmlns="http://www.w3.org/2000/svg" xmlns:xlink="http://www.w3.org/1999/xlink" x="0px" y="0px" width="300px"
	 height="300px" viewBox="0 0 300 300" enable-background="new 0 0 300 300" xml:space="preserve">
<g id="face">
	<polygon fill="#EF7C20" points="51.336,91.207 1,176.664 1,176.664 1,176.664 43.284,192.473 57.335,91.207 	"/>
	<animate attributeName="points" dur="500ms" to="-338.479,66.174 -370.847,84.265 -370.847,95.38 -340.169,95.454 -325.127,113.799 
		-325.127,66.174 	"/>

</g>
<g id="neck_x5F_light">
	<polygon fill="#F49538" points="83.168,187 83.168,187 101.255,159.911 57.335,91.207 43.001,194 	"/>
	<animate 
		begin="0"
		attributeName="points" 
		dur="500ms" 
		to="-325.127,50.042 -325.127,132.866 -283.932,171.502 -283.068,119.576 -289.383,95.161 	"/>
</g>
<g id="back">
	<polygon fill="#AC4B17" points="-166.026,82.235 -135.72,64.583 -135.72,117.832 	"/>
	<animate attributeName="points" dur="500ms" to="205.307,82.235 235.613,64.583 235.613,117.832 	"/>
</g>
<g id="paw_x5F_bottom_x5F_lighter">
	<polygon fill="#F49538" points="-80.84,128.011 -122.252,64.583 -135.72,64.583 -135.72,118.857 -139.207,247.967 
		-149.048,262.943 -158.42,264.131 -158.42,273.959 -139.91,273.959 -79.098,140.648 	"/>
	<animate attributeName="points" dur="500ms" to="298.82,139.25 249.081,64.583 235.613,64.583 235.613,118.857 234.05,148.987 234.05,153 
		233.271,156.536 236.667,153.5 242.417,150 248.167,147.639 	"/>
</g>
<g id="tail">
	<polygon fill="#AC4B17" points="-83.866,148.988 -74.802,157.771 -72.513,208.992 -77.09,206.813 -87.8,170.785 -93.583,171.381 	
		"/>
	<animate attributeName="points" dur="500ms" to="262.334,115.667 265.667,115.667 291.333,154.639 256.728,159.911 255.973,157 242.667,147.639 	
		"/>
</g>
<g id="paw_x5F_top_x5F_lighter">
	<polygon fill="#F49531" points="-275.541,113.471 -237.045,238.371 -240.031,260.895 -247.999,264.412 -246.41,272.934 
		-226.393,272.934 -199.367,53.314 	"/>
<animate attributeName="points" dur="500ms" to="67.667,144 61.335,165 81.788,177.462 81.788,177.462 134.678,191.956 154.32,196.705 
		171.966,53.314 	"/>
</g>
<g id="belly">
	<polygon fill="#EF7C20" points="-135.72,117.832 -190.646,53.314 -199.367,53.314 -215.216,182.111 -137.283,175.703 	"/>
	<animate attributeName="points" dur="500ms" to="282.417,173.25 180.687,53.314 171.966,53.314 156.117,182.111 154.32,196.705 	"/>
</g>
<g id="neck_x5F_darker">
	<polygon fill="#EF7C20" points="-258.344,169.271 -283.932,175.703 -283.068,119.576 -273.465,119.576 	"/>
	<animate attributeName="points" dur="500ms" to="95.668,239.333 19.001,211.375 19.001,211.375 95.668,108.686 	"/>
</g>
<g id="paw_x5F_top_x5F_darker">
	<polygon fill="#AC4B17" points="-258.344,169.271 -268.981,171.918 -260.104,225.529 -264.11,241.564 -272.267,244.141 
		-272.267,251.334 -255.83,251.334 -243.57,217.195 	"/>
	<animate attributeName="points" dur="500ms" to="95.668,108.686 95.668,109.331 95.668,239.333 95.668,239.333 95.668,239.333 95.668,239.333 
		168.668,224.333 105.255,107.831 	"/>
</g>
<g id="paw_x5F_bottom_x5F_darker">
	<polygon fill="#AC4B17" points="-170.022,178.395 -160.879,221.311 -163.196,238.932 -171.894,241.564 -171.894,248.498 
		-154.496,248.498 -137.814,195.371 -137.283,175.703 	"/>
	<animate attributeName="points" dur="500ms" to="197.167,180 177.917,204 177.917,204 208.792,211.375 209.417,211.375 255.292,199.625 
		222.337,155 215.337,155 	"/>
</g>
</svg>
