<svg version="1.1" id="chrome" xmlns="http://www.w3.org/2000/svg" xmlns:xlink="http://www.w3.org/1999/xlink" x="0px" y="0px"
	 width="138px" height="138px" viewBox="0 0 138 138" enable-background="new 0 0 138 138" xml:space="preserve">
<path fill="#11141C" d="M94.9,44.3c0.8-1,2.1-0.6,3.2-0.7c10.3,0,20.6,0.1,30.9-0.1c2.9,0,4.4,0.9,5.4,3.7
	c13.9,39.2-13.7,84.6-54.8,89.8c-3,0.4-6,1.6-9.1,0.5c-0.2-1.9,1.1-3.1,1.8-4.5c8.2-14.3,16.3-28.7,24.9-42.8
	c9.2-15.3,9.3-29.9-1.8-44.2c-0.3-0.4-0.4-0.9-0.6-1.3C94.7,44.7,94.9,44.5,94.9,44.3z M34.5,59.7C28,48.5,22.1,38,16,27.6
	c-1.5-2.5,0.5-3.6,1.7-5C29.4,9.8,44,2,61.2,0.4c26.2-2.5,47.7,7.1,63.7,28.2c1,1.4,2.4,2.7,2.3,5.2c-3.2,0-6.5,0-9.7,0
	c-15.7,0-31.4,0-47.1,0c-16.5,0-28,7.5-34.4,22.8C35.7,57.3,35.3,58,34.5,59.7z M78.2,103.5c-6.5,11.2-12.5,21.7-18.6,32.1
	c-1.2,2-3,1.4-4.8,1.1c-32.9-6.7-56-36.3-54.7-69.9c0.4-11.5,3.7-23.1,9.1-31.3c2.5,4.5,4.9,8.7,7.3,12.9
	c6.3,11.1,12.9,22,18.8,33.3C43,96.2,55.7,107.1,78.2,103.5z M68.7,94c-14.1,0-25-10.8-25-24.8c0-13.9,11.5-25.2,25.5-25.1
	c13.6,0.1,25,11.7,24.8,25.3C93.9,83.3,82.9,94,68.7,94z"/>
</svg>
