<svg version="1.1" id="firefox" xmlns="http://www.w3.org/2000/svg" xmlns:xlink="http://www.w3.org/1999/xlink" x="0px" y="0px"
	 width="138px" height="138px" viewBox="0 0 138 138" enable-background="new 0 0 138 138" xml:space="preserve">
<path fill="#11141C" d="M127.9,25.5c0-1.8,0-3.6,0-5.9c2.8,1.4,3.4,4.1,4.1,6.4c4.6,14.6,7.7,29.4,4.8,44.9
	c-0.9,5.1-1.1,10.3-2.1,15.4c-2.8,14.4-10.3,25.8-23.2,33.1c-23.6,13.3-48.3,17-73.4,4.7c-19.6-9.6-30.6-26.5-36-47.2
	c-4-15.1-2.9-29.5,5.2-43.1c1-1.8,0.6-3.6,0.5-5.4c0-7.4,1.2-14.1,7-19.3c1.3,0.7,1.3,2.2,1.8,3.4c2.7,6.8,5.1,8.3,12.3,7.9
	c0.3,0,0.7-0.1,1,0c5.9,1,11.2,0.1,16-4c2.9-2.5,7.1-2.5,11.7-3c-2.4,3-5.2,4.8-6.6,7.8c-3.4,7.1-0.4,12.1,7.5,12.3
	c3,0.1,6-0.6,8.9,0.6c1.1,3.3-0.1,5.6-2.9,7.3c-1,0.6-2,1.3-3,1.9c-4.8,2.8-9.2,5.7-6.6,12.4c0.2,0.6-0.2,1.6-0.4,2.4
	c-0.7,0-1.2,0.1-1.7,0c-3.2-1.2-6.4-1.7-8.3,2c-1.9,3.8,0.1,6.8,2.9,9.3c5.9,5.1,12.4,6.1,19.6,2.8c5.5-2.5,11-2.7,16,1.6
	c1.1,1,2.3,2.1,1.7,3.9c-0.6,1.5-2,1.6-3.4,1.5c-2.4-0.1-4.2,1.2-5.9,2.5c-6.4,4.8-13.5,7.2-22.6,6.6c9,6.4,17.3,11,27.9,9.9
	c10.8-1.1,17.6-8,23.8-16.9c1.4,3.3-0.8,5.5-0.1,8.7c7.6-8.7,6.3-19,6.6-28.7c2.7-0.3,3,2.2,4.8,3.5c2.2-8.6,2.3-16.9,0.8-25.2
	c2.5-0.4,2.8,2.1,4.5,2.4c0.1,0.3,0.1,0.6,0.2,0.9c0.1-0.1,0.3-0.2,0.4-0.4c-0.2-0.2-0.5-0.3-0.7-0.5c-1.4-10.1-6.7-17.2-16.2-21
	c-3.9-1.6-7.9-3-12.9-4.8c4.5-2.2,8.4-1.8,12.4-2.8c-4.8-3.7-10.6-4-15.5-6.4c13-0.2,25.4,1.6,34.3,12.8
	C124.7,21.3,125.7,23.9,127.9,25.5c0.3,0.2-0.2,0.9,0.6,0.7C128.3,25.9,128.1,25.7,127.9,25.5z"/>
</svg>
