<svg version="1.1" id="ie" xmlns="http://www.w3.org/2000/svg" xmlns:xlink="http://www.w3.org/1999/xlink" x="0px" y="0px"
	 width="138px" height="138px" viewBox="0 0 138 138" enable-background="new 0 0 138 138" xml:space="preserve">
<path fill-rule="evenodd" clip-rule="evenodd" fill="#11141C" d="M42.2,33.9c-10,4.7-17.5,12.5-25,20.5c-1.4-2.4,0-4.1,0.7-5.7
	c9.3-23.3,33.3-39.2,58.4-38.6c2.5,0.1,4.8-0.2,7-1.1c7.8-3.2,15.9-5.7,24.3-6.6c17.5-1.9,27.3,5.3,25.5,24.1
	c-1.4,14.3-1.5,14.2,2.5,28.4c1.7,6.2,2.2,12.5,2.4,18.9c0.1,4.5-1.1,5.9-5.8,5.9c-25.4-0.2-50.7-0.1-76.1-0.1c-1.9,0-3.7,0-6.1,0
	c-0.7,9.2,3.2,16.1,9.8,21.2c12.2,9.7,29.6,7.2,39-5.2c1.1-1.5,1.9-3.3,4.3-3.3c10.1,0,20.3,0,30.2,0c1.4,2.6-0.1,4.1-0.9,5.7
	c-14.2,30.5-48.6,44.5-79.8,32.2c-3.9-1.5-6.9-1.4-10.7,0.1c-8.6,3.4-17.4,6.7-27,4.5c-9.6-2.2-14.5-7.9-14.8-17.8
	c-0.3-11.3,2.7-21.8,7-32.1c7.5-17.9,18.4-33.5,32.2-47c1.2-1.2,2.3-2.6,3.4-3.8c0.2-0.2,0.7-0.6,0.7-0.6
	C43,33.2,42.6,33.6,42.2,33.9z M101.3,62.9C100.7,48.1,87.1,37,72.4,38.7c-12.5,1.5-23.7,13.7-21.9,24.2
	C67.3,62.9,84.2,62.9,101.3,62.9z M43.2,125.8c-12.5-7.7-20.6-18.4-26.2-31.5c-4.4,7.5-6.9,15.3-7.2,22.2
	c-0.4,9.1,4.5,14.2,13.7,14.3C30.2,130.8,36.4,128.8,43.2,125.8z M127.5,37.6c2.8-6.1,3.8-12,2.6-18c-1-5.3-4.8-8.2-10.1-9
	c-7-1-13.5,0.9-20.7,4c6.1,2.7,11,5.8,15.6,9.4C119.6,27.8,123.5,32.4,127.5,37.6z"/>
</svg>
