<?xml version="1.0" encoding="utf-8"?>
<!-- Generator: Adobe Illustrator 18.1.1, SVG Export Plug-In . SVG Version: 6.00 Build 0)  -->
<!DOCTYPE svg PUBLIC "-//W3C//DTD SVG 1.1//EN" "http://www.w3.org/Graphics/SVG/1.1/DTD/svg11.dtd">
<svg version="1.1" id="Calque_1" xmlns="http://www.w3.org/2000/svg" xmlns:xlink="http://www.w3.org/1999/xlink" x="0px" y="0px"
	 width="40px" height="40px" viewBox="-29 31 40 40" enable-background="new -29 31 40 40" xml:space="preserve">
<path fill="none" d="M-16.7,63.4V44.2h-6.4v19.2L-16.7,63.4L-16.7,63.4z M-19.9,41.6c2.2,0,3.6-1.5,3.6-3.3c0-1.9-1.4-3.3-3.6-3.3
	c-2.2,0-3.6,1.4-3.6,3.3C-23.4,40.1-22.1,41.6-19.9,41.6L-19.9,41.6L-19.9,41.6z M-13.1,63.4h6.4V52.7c0-0.6,0-1.1,0.2-1.6
	C-6,50-5,48.8-3.2,48.8c2.3,0,3.2,1.8,3.2,4.3v10.3h6.4v-11c0-5.9-3.2-8.6-7.4-8.6c-3.5,0-5,1.9-5.8,3.2h0v-2.8h-6.4
	C-13,46-13.1,63.4-13.1,63.4L-13.1,63.4z"/>
</svg>
