<svg version="1.1" id="opera" xmlns="http://www.w3.org/2000/svg" xmlns:xlink="http://www.w3.org/1999/xlink" x="0px" y="0px"
	 width="138px" height="138px" viewBox="0 0 138 138" enable-background="new 0 0 138 138" xml:space="preserve">
<path fill-rule="evenodd" clip-rule="evenodd" fill="#11141C" d="M69.1,0c36.6,0,63.5,26.3,64.8,63c0.8,23.6-5.9,44.2-24.2,59.7
	C74,152.8,21.4,136.6,7.9,91C0,64,3.5,38.6,23.7,17.4C34.9,5.6,50.5,0,69.1,0z M92.2,68.4c0-5.9,0.4-11.8-0.1-17.7
	c-0.7-9.6-2-19.1-7.4-27.6c-6.8-10.7-25.4-11.5-32,1c-2,3.8-3.6,7.7-4.4,11.9C44.5,55.1,45,74.4,47,93.7c0.8,7.8,2.8,15.1,7.7,21.5
	c7.7,10,22,9.6,29.3-0.6c2.7-3.8,4.3-8,5.6-12.5C92.6,91,92.5,79.7,92.2,68.4z"/>
</svg>
