<svg version="1.1" id="safari" xmlns="http://www.w3.org/2000/svg" xmlns:xlink="http://www.w3.org/1999/xlink" x="0px" y="0px"
	 width="138px" height="138px" viewBox="0 0 138 138" enable-background="new 0 0 138 138" xml:space="preserve">
<path fill="#11141C" d="M131.8,66c-3.7-27.3-29.1-58.3-71-54.2c1.4-3.3,1.9-6.6-2-8.1h-0.1c0.3-0.2,0.5-0.5,0.7-0.9
	c-0.5-2.6-2.2-2.9-4.1-2.7c-2.4,0.1-4.9,0.6-5.4,3.6c-0.1,0.4,0,0.7,0.2,1c-0.5,0.4-0.9,0.8-1.4,1.3c-2.7,3-0.6,5.4,1.7,7.6
	c-39,13.6-51.7,53-41.2,82c11,30.6,42.5,48.1,74.2,40.8C116.1,128.8,136.1,97.5,131.8,66z M49.9,9c0.5-3,2.9-3.5,5.4-3.7
	c1.8-0.1,3.6,0.2,4.1,2.8c-1.6,2.9-5.2,0.7-7.4,2.6C51.2,11.5,49.7,10.3,49.9,9z M82.5,120.3c-1.7-2.5-3.4-5.1-5.5-8.2
	c-0.4,1.3-0.6,1.8-0.7,2.4c-1.6,8.3-1.6,8.3-9.9,8c-19.6-0.8-38.6-15.8-43.1-34.3c2.6-1.6,5.2-3.3,8.8-5.5c-3.7-0.7-6.6-1.3-9.8-1.9
	c-1.7-4.4-1.1-9-0.3-13.5c2.9-16.7,12-28.7,27.2-36.1c6.1-3,6.2-2.9,9.7,2.8c0.5,0.9,0.8,2.2,2.1,2.5c1.1-0.9,1.1-2.3,1-3.4
	c-0.4-5.8,3.2-6.5,7.6-6.3c19.5,1.1,34,10.1,42.9,27.7c3.1,6.2,2.9,6.3-3,10c-0.8,0.5-1.6,1-3.1,2c2.2,0.6,3.8,1.4,5.3,1.3
	c4.1-0.3,5.1,1.8,5.2,5.5C117.7,94.3,102.7,115,82.5,120.3z M38.8,103.6c5.4-7.4,10.7-14.7,16.4-22.5c-4.5-0.8-8.9,0.2-13.5-1.3
	c2.6-2.3,5.3-3.1,7.8-4.2c6.4-3,7-6.1,2.4-11.4c-0.4-0.4-0.6-1-1-1.6c2.1-0.7,3.6,0.9,5.3,0.9c3.4,0.1,5.6-1.7,6-5.1
	c0.4-3.6-0.3-7.4,1.1-11.4c2.5,2.7,3.3,6,4.7,8.8c2.3,4.6,6.6,5.7,10.8,2.6c5.4-4,10.7-8.1,16.1-12.2c1.1-0.8,1.9-2.1,4.4-1.9
	c-5.7,7.6-11.1,14.8-16.9,22.6c4.9,0.4,9.2,0.8,14.7,1.3c-3,1.5-4.9,2.4-6.9,3.4c-8.9,4.2-9.4,6-3.6,13.4c-0.2,0.2-0.4,0.4-0.5,0.6
	c-1.1-0.3-2.2-0.5-3.2-0.8c-3.8-1-6.9,1.3-7.2,5.2c-0.3,3.5,0.3,7-1,10.8c-2.6-2.6-3.3-5.9-4.8-8.7c-2.4-4.7-6.5-5.7-10.8-2.5
	c-6.5,4.8-13.1,9.6-19.7,14.5C39.2,103.9,39,103.7,38.8,103.6z M73.6,62.8c-6.2-2.1-10.9-0.9-14.2,3.2c-3.2,3.8-3.7,7.8-1.4,11.9
	C62,71.8,66.8,66.8,73.6,62.8z M64.1,85.6c6.7,1.6,11.2,0.4,14.7-4c3-3.8,3.3-7.5,0.9-11.5C76,76.4,70.7,81,64.1,85.6z"/>
</svg>
