<?xml version="1.0" encoding="utf-8"?>
<!-- Generator: Adobe Illustrator 18.1.1, SVG Export Plug-In . SVG Version: 6.00 Build 0)  -->
<!DOCTYPE svg PUBLIC "-//W3C//DTD SVG 1.1//EN" "http://www.w3.org/Graphics/SVG/1.1/DTD/svg11.dtd">
<svg version="1.1" id="Calque_1" xmlns="http://www.w3.org/2000/svg" xmlns:xlink="http://www.w3.org/1999/xlink" x="0px" y="0px"
	 width="40px" height="40px" viewBox="-29 31 40 40" enable-background="new -29 31 40 40" xml:space="preserve">
<path fill="#FFFFFF" d="M-9.6,46.2c1.2-3.6,2.6-5.9,4.2-7.6c1.2-1.3,1.8-1.7,1.1-0.3c0.3-0.3,0.8-0.6,1.1-0.8c2-0.9,1.8-0.1,0.5,0.7
	c3.7-1.3,3.6,0.4-0.3,1.2c3.2,0.1,6.6,2.1,7.6,6.4c0.1,0.6,0,0.5,0.6,0.6c1.3,0.2,2.6,0.2,3.8-0.2c-0.1,0.9-1.3,1.5-3.2,1.9
	c-0.7,0.1-0.8,0.1,0,0.3c1,0.2,2.1,0.3,3.3,0.2c-0.9,1.1-2.4,1.6-4.3,1.6c-1.1,4.2-3.8,7.2-7.1,9.1c-7.8,4.4-19.1,3.8-24.8-4.2
	c3.7,2.9,9.3,3.6,13.4-0.5c-2.7,0-3.4-2-1.3-3.1c-2,0-3.3-0.7-4.1-1.8c-0.3-0.4-0.3-0.5,0.2-0.8c0.5-0.4,1.2-0.5,1.9-0.6
	c-2.1-0.6-3.4-1.7-3.8-3.1c-0.1-0.5-0.2-0.5,0.3-0.6c0.5-0.1,1.1-0.2,1.7-0.2c-1.6-1-2.6-2.2-2.9-3.6c-0.2-1.3,0-0.9,1-0.6
	C-16.3,41.9-12.1,43.6-9.6,46.2z"/>
</svg>
