<?xml version="1.0" encoding="utf-8"?>
<!-- Generator: Adobe Illustrator 18.0.0, SVG Export Plug-In . SVG Version: 6.00 Build 0)  -->
<!DOCTYPE svg PUBLIC "-//W3C//DTD SVG 1.1//EN" "http://www.w3.org/Graphics/SVG/1.1/DTD/svg11.dtd">
<svg version="1.1" id="Layer_1" xmlns="http://www.w3.org/2000/svg" xmlns:xlink="http://www.w3.org/1999/xlink" x="0px" y="0px"
	 width="500px" height="500px" viewBox="0 0 500 500" enable-background="new 0 0 500 500" xml:space="preserve">
<path fill="#5A9596" d="M452.4,497H45.6C21.1,497,1,476.9,1,452.4V45.6C1,21.1,21.1,1,45.6,1h406.7C476.9,1,497,21.1,497,45.6v406.7
	C497,476.9,476.9,497,452.4,497z"/>
<path fill="none" stroke="#FFFFFF" stroke-width="9" stroke-linecap="round" stroke-linejoin="round" stroke-miterlimit="10" d="
	M440,78.9c-39.9,0-91.8-6.6-169.1,148.5c-80.5,161.6-177.4,193-177.4,193"/>
<line fill="none" stroke="#FFFFFF" stroke-width="3" stroke-linecap="round" stroke-linejoin="round" stroke-miterlimit="10" x1="315" y1="79.5" x2="423" y2="79.5"/>
<line fill="none" stroke="#FFFFFF" stroke-width="4.4769" stroke-linecap="round" stroke-linejoin="round" stroke-miterlimit="10" x1="93.9" y1="421" x2="195.5" y2="420.2"/>
<circle fill="#FFFFFF" cx="309.2" cy="79.2" r="10.9"/>
<circle fill="#FFFFFF" cx="199.2" cy="420.2" r="10.9"/>
</svg>
