<?xml version="1.0" encoding="utf-8"?>
<!DOCTYPE svg PUBLIC "-//W3C//DTD SVG 1.1//EN" "http://www.w3.org/Graphics/SVG/1.1/DTD/svg11.dtd">

	<svg version="1.1" class="illustration" xmlns="http://www.w3.org/2000/svg" xmlns:xlink="http://www.w3.org/1999/xlink" x="0px" y="0px" width="2250px" height="1080px" viewBox="0 0 2250 1080" enable-background="new 0 0 2250 1080" xml:space="preserve">
		<title>Mind Explorers, couverture animée</title>

		<style type="text/css">

			/* animation */
			@keyframes growUp {
				
				0% {
					transform: scale(0); 
					transition-timing-function: cubic-bezier(0.215, 0.610, 0.355, 1.000);
				}
				80% {
					transform: scale(1.1);
					transition-timing-function: cubic-bezier(0.215, 0.610, 0.355, 1.000);
				}
				100% {
					transform: scale(1);
					transition-timing-function: cubic-bezier(0.215, 0.610, 0.355, 1.000);
				}

			}
			@keyframes road {
				
				0% {
					stroke-dasharray: 2000;
					stroke-dashoffset: 2000;
				}
				100% {
					stroke-dasharray: 2000;
					stroke-dashoffset: 0;
				}

			}
			@keyframes show {
				
				0% {
					opacity: 0;
					stroke-dashoffset: 0;
				}
				10% {
					opacity: 1;
				}
				100% {
					stroke-dashoffset: 1000;
				}

			}
			
			@-webkit-keyframes growUp {
				
				0% {
					-webkit-transform: scale(0); 
					-webkit-transition-timing-function: cubic-bezier(0.215, 0.610, 0.355, 1.000);
				}
				80% {
					-webkit-transform: scale(1.1);
					-webkit-transition-timing-function: cubic-bezier(0.215, 0.610, 0.355, 1.000);
				}
				100% {
					-webkit-transform: scale(1);
					-webkit-transition-timing-function: cubic-bezier(0.215, 0.610, 0.355, 1.000);
				}

			}
			@-webkit-keyframes road {
				
				0% {
					stroke-dasharray: 2000;
					stroke-dashoffset: 2000;
				}
				100% {
					stroke-dasharray: 2000;
					stroke-dashoffset: 0;
				}

			}
			@-webkit-keyframes show {
				
				0% {
					opacity: 0;
					stroke-dashoffset: 0;
				}
				10% {
					opacity: 1;
				}
				100% {
					stroke-dashoffset: 1000;
				}

			}

			@-moz-keyframes growUp {
				
				0% {
					-moz-transform: scale(0); 
					-moz-transition-timing-function: cubic-bezier(0.215, 0.610, 0.355, 1.000);
				}
				80% {
					-moz-transform: scale(1.1);
					-moz-transition-timing-function: cubic-bezier(0.215, 0.610, 0.355, 1.000);
				}
				100% {
					-moz-transform: scale(1);
					-moz-transition-timing-function: cubic-bezier(0.215, 0.610, 0.355, 1.000);
				}

			}
			@-moz-keyframes road {
				
				0% {
					-moz-stroke-dasharray: 2000;
					-moz-stroke-dashoffset: 2000;
				}
				100% {
					-moz-stroke-dasharray: 2000;
					-moz-stroke-dashoffset: 0;
				}

			}
			@-moz-keyframes show {
				
				0% {
					opacity: 0;
					stroke-dashoffset: 0;
				}
				10% {
					opacity: 1;
				}
				100% {
					stroke-dashoffset: 1000;
				}

			}


			*.one {
				animation: growUp .5s 1s 1 backwards;
					-webkit-animation: growUp .5s 1s 1 backwards;
						-moz-animation: growUp .5s 1s 1 backwards;
			}
			*.two {
				animation: growUp .5s 1.15s 1 backwards;
					-webkit-animation: growUp .5s 1.15s 1 backwards;
						-moz-animation: growUp .5s 1.15s 1 backwards;
			}
			*.three {
				animation: growUp .5s 1.3s 1 backwards;
					-webkit-animation: growUp .5s 1.3s 1 backwards;
						-moz-animation: growUp .5s 1.3s 1 backwards;
			}
			*.four {
				animation: growUp .5s 1.45s 1 backwards;
					-webkit-animation: growUp .5s 1.45s 1 backwards;
						-moz-animation: growUp .5s 1.45s 1 backwards;
			}
			*.five {
				animation: growUp .5s 1.45s 1 backwards;
					-webkit-animation: growUp .5s 1.6s 1 backwards;
						-moz-animation: growUp .5s 1.45s 1 backwards;
			}
			*.bRoad {
				animation: road 3s ease-out 0 1 backwards;
					-webkit-animation: road 3s ease-out 0 1 backwards;
						-moz-animation: road 3s ease-out 0 1 backwards;
			}
			*.sRoad {
				animation: show 60s 2.25s infinite both alternate;
					-webkit-animation: show 60s 2.25s infinite both alternate;
						-moz-animation: show 60s 2.25s infinite both alternate;
			}


			/* origin */
			*.column1 {
				transform-origin: 450px 275px;
					-webkit-transform-origin: 450px 275px;
						-moz-transform-origin: 450px 275px;
			}
			*.arc1 {
				transform-origin: 2233px 125px;
					-webkit-transform-origin: 2233px 125px;
						-moz-transform-origin: 2233px 125px;
			}
			*.column2 {
				transform-origin: 436px 1202px;
					-webkit-transform-origin: 436px 1202px;
						-moz-transform-origin: 436px 1202px;
			}
			*.arc2 {
				transform-origin: 1702px 919px;
					-webkit-transform-origin: 1702px 919px;
						-moz-transform-origin: 1702px 919px;
			}
			*.column3 {
				transform-origin: 152px 173px;
					-webkit-transform-origin: 152px 173px;
						-moz-transform-origin: 152px 173px;
			}
			*.column4 {
				transform-origin: 975px 295px;
					-webkit-transform-origin: 975px 295px;
						-moz-transform-origin: 975px 295px;
			}
			*.bourse{
				transform-origin: 1450px 392px;
					-webkit-transform-origin: 1450px 392px;
						-moz-transform-origin: 1450px 392px;
			}


			*.tree1 {
				transform-origin: 2218px 282px;
					-webkit-transform-origin: 2218px 282px;
						-moz-transform-origin: 2218px 282px;
			}
			*.tree2 {
				transform-origin: 318px 615px;
					-webkit-transform-origin: 318px 615px;
						-moz-transform-origin: 318px 615px;
			}
			*.tree3 {
				transform-origin: 1863px 910px;
					-webkit-transform-origin: 1863px 910px;
						-moz-transform-origin: 1863px 910px;
			}
			*.tree4 {
				transform-origin: 1785px 63px;
					-webkit-transform-origin: 1785px 63px;
						-moz-transform-origin: 1785px 63px;
			}
			*.tree5 {
				transform-origin: 1798px 750px;
					-webkit-transform-origin: 1798px 750px;
						-moz-transform-origin: 1798px 750px;
			}
			*.tree6 {
				transform-origin: 15px 1097px;
					-webkit-transform-origin: 15px 1097px;
						-moz-transform-origin: 15px 1097px;
			}
			*.tree7 {
				transform-origin: 1785px 63px;
					-webkit-transform-origin: 1785px 63px;
						-moz-transform-origin: 1785px 63px;
			}
			*.tree8 {
				transform-origin: 1323px 107px;
					-webkit-transform-origin: 1323px 107px;
						-moz-transform-origin: 1323px 107px;
			}
			*.tree9 {
				transform-origin: 1376px 941px;
					-webkit-transform-origin: 1376px 941px;
						-moz-transform-origin: 1376px 941px;
			}
			*.tree10 {
				transform-origin: 80px 1058px;
					-webkit-transform-origin: 80px 1058px;
						-moz-transform-origin: 80px 1058px;
			}
			*.tree11 {
				transform-origin: 1845px 10px;
					-webkit-transform-origin: 1845px 10px;
						-moz-transform-origin: 1845px 10px;
			}
			*.tree12 {
				transform-origin: 254px 487px;
					-webkit-transform-origin: 254px 487px;
						-moz-transform-origin: 254px 487px;
			}
			*.tree13 {
				transform-origin: 865px 1156px;
					-webkit-transform-origin: 865px 1156px;
						-moz-transform-origin: 865px 1156px;
			}
			*.tree14 {
				transform-origin: 2134px 359px;
					-webkit-transform-origin: 2134px 359px;
						-moz-transform-origin: 2134px 359px;
			}
			*.tree15 {
				transform-origin: 2024px 9px;
					-webkit-transform-origin: 2024px 9px;
						-moz-transform-origin: 2024px 9px;
			}
			*.tree16 {
				transform-origin: 1401px 33px;
					-webkit-transform-origin: 1401px 33px;
						-moz-transform-origin: 1401px 33px;
			}
			*.tree17 {
				transform-origin: 761px 1094px;
					-webkit-transform-origin: 761px 1094px;
						-moz-transform-origin: 761px 1094px;
			}

			*.col1 {
				transform-origin: 459px 415px;
					-webkit-transform-origin: 459px 415px;
						-moz-transform-origin: 459px 415px;
			}
			*.col2 {
				transform-origin: 2066px 282px;
					-webkit-transform-origin: 2066px 282px;
						-moz-transform-origin: 2066px 282px;
			}
			*.col3 {
				transform-origin: 1519px 887px;
					-webkit-transform-origin: 1519px 887px;
						-moz-transform-origin: 1519px 887px;
			}
			*.col4 {
				transform-origin: 1868px 50px;
					-webkit-transform-origin: 1868px 50px;
						-moz-transform-origin: 1868px 50px;
			}
			*.col5 {
				transform-origin: 1385px 851px;
					-webkit-transform-origin: 1385px 851px;
						-moz-transform-origin: 1385px 851px;
			}
			*.col6 {
				transform-origin: 1162px 160px;
					-webkit-transform-origin: 1162px 160px;
						-moz-transform-origin: 1162px 160px;
			}
			*.col7 {
				transform-origin: 386px 457px;
					-webkit-transform-origin: 386px 457px;
						-moz-transform-origin: 386px 457px;
			}
			*.col8 {
				transform-origin: 1506px 58px;
					-webkit-transform-origin: 1506px 58px;
						-moz-transform-origin: 1506px 58px;
			}
			*.col9 {
				transform-origin: 1125px 153px;
					-webkit-transform-origin: 1125px 153px;
						-moz-transform-origin: 1125px 153px;
			}
			*.col10 {
				transform-origin: 366px 393px;
					-webkit-transform-origin: 366px 393px;
						-moz-transform-origin: 366px 393px;
			}
			*.col11 {
				transform-origin: 603px 879px;
					-webkit-transform-origin: 603px 879px;
						-moz-transform-origin: 603px 879px;
			}
			*.col12 {
				transform-origin: 1251px 31px;
					-webkit-transform-origin: 1251px 31px;
						-moz-transform-origin: 1251px 31px;
			}
			*.col13 {
				transform-origin: 167px 1079px;
					-webkit-transform-origin: 167px 1079px;
						-moz-transform-origin: 167px 1079px;
			}
			*.col14 {
				transform-origin: 1836px 852px;
					-webkit-transform-origin: 1836px 852px;
						-moz-transform-origin: 1836px 852px;
			}
			*.col15 {
				transform-origin: 711px 27px;
					-webkit-transform-origin: 711px 27px;
						-moz-transform-origin: 711px 27px;
			}
			*.col16 {
				transform-origin: 1436px 94px;
					-webkit-transform-origin: 1436px 94px;
						-moz-transform-origin: 1436px 94px;
			}
			*.col17 {
				transform-origin: 1626px 753px;
					-webkit-transform-origin: 1626px 753px;
						-moz-transform-origin: 1626px 753px;
			}
			*.col18 {
				transform-origin: 108px 1109px;
					-webkit-transform-origin: 108px 1109px;
						-moz-transform-origin: 108px 1109px;
			}
			*.col19 {
				transform-origin: 1628px 1024px;
					-webkit-transform-origin: 1628px 1024px;
						-moz-transform-origin: 1628px 1024px;
			}
			*.col20 {
				transform-origin: 673px 1168px;
					-webkit-transform-origin: 673px 1168px;
						-moz-transform-origin: 673px 1168px;
			}
			*.col21 {
				transform-origin: 1427px 937px;
					-webkit-transform-origin: 1427px 937px;
						-moz-transform-origin: 1427px 937px;
			}
			*.col22 {
				transform-origin: 647px 33px;
					-webkit-transform-origin: 647px 33px;
						-moz-transform-origin: 647px 33px;
			}
			*.col23 {
				transform-origin: 2246px 346px;
					-webkit-transform-origin: 2246px 346px;
						-moz-transform-origin: 2246px 346px;
			}
			*.col24 {
				transform-origin: 2056px 32px;
					-webkit-transform-origin: 2056px 32px;
						-moz-transform-origin: 2056px 32px;
			}
			*.col25 {
				transform-origin: 584px 1078px;
					-webkit-transform-origin: 584px 1078px;
						-moz-transform-origin: 584px 1078px;
			}
			*.col26 {
				transform-origin: 308px 400px;
					-webkit-transform-origin: 308px 400px;
						-moz-transform-origin: 308px 400px;
			}
			*.col27 {
				transform-origin: 571px 848px;
					-webkit-transform-origin: 571px 848px;
						-moz-transform-origin: 571px 848px;
			}

		</style>

		<defs>
			<rect class="SVGID" width="2250" height="1080"/>
		</defs>
		<clipPath class="SVGID">
			<use xlink:href="#SVGID"  overflow="visible"/>
		</clipPath>
		<g class="elements" clip-path="url(#SVGID)">
			<rect class="bg" x="-12.3" y="-23.2" fill="#38315F" width="2271.2" height="1131.7"/>
			<g class="roads">
				<path class="bRoad" fill="none" stroke="#B0438C" stroke-width="25.4497" stroke-miterlimit="10" d="M615.7,479.9c0,28.3-18.5,449.8,593.5,449.8c77.8,166.3,511.5,218.8,514.2,431.3 M615.7,479.9c0,1.7,0,4.8,0,9.2 M1074.7-206.6c0,377.1-453.5,152.2-453.5,575.5c0,155.3,4.3,446.8-622.4,446.8 M618.2,377.5c763.5,0,463.5-227.4,1009.3-227.4C1779,144,1623,470,1784.1,416.9c224.9-76.9,507.1,345.3,507.1,345.3"/>

				<path class="sRoad" fill="none" stroke="#F6F3BD" stroke-width="2" stroke-linecap="round" stroke-miterlimit="10" stroke-dasharray="13.171,15.8047" d="
				M616.8,518.7c8.4,110.6,75.7,411,592.4,411c77.8,166.3,511.5,218.8,514.2,431.3 M1074.7-206.6c0,377.1-453.5,152.2-453.5,575.5
				c0,155.3,4.3,446.8-622.4,446.8 M640,377.4c736-4.3,447-227.3,987.5-227.3C1779,144,1623,470,1784.1,416.9
				c224.9-76.9,507.1,345.3,507.1,345.3"/>
			</g>
			<g class="two col12">
				<path fill="#9DCAD1" stroke="#38315F" stroke-width="0.8466" stroke-miterlimit="10" d="M1267.7,24.8c0,8.7-31.5,8.7-31.5,0s7-15.7,15.7-15.7C1260.6,9,1267.7,16.2,1267.7,24.8z"/>
			</g>
			<g class="one col6">
				<path fill="#9DCAD1" stroke="#38315F" stroke-width="0.8466" stroke-miterlimit="10" d="M1177.1,157c0,8.7-31.5,8.7-31.5,0s7-15.7,15.7-15.7C1170.1,141.2,1177.1,148.3,1177.1,157z"/>
			</g>
			<g class="five col26">
				<path fill="#9DCAD1" stroke="#38315F" stroke-width="0.8466" stroke-miterlimit="10" d="M324.1,394c0,8.7-31.5,8.7-31.5,0s7-15.7,15.7-15.7C317.1,378.2,324.1,385.3,324.1,394z"/>
			</g>
			<g class="four col22">
				<path fill="#9DCAD1" stroke="#38315F" stroke-width="0.8466" stroke-miterlimit="10" d="M663.4,27.2c0,8.7-31.5,8.7-31.5,0s7-15.7,15.7-15.7C656.4,11.5,663.4,18.5,663.4,27.2z"/>
			</g>
			<g class="three col17">
				<path fill="#9DCAD1" stroke="#38315F" stroke-width="0.9052" stroke-miterlimit="10" d="M1645.6,746.1c0,10.3-37.8,10.3-37.8,0s8.5-18.8,18.8-18.8C1637.2,727.3,1645.6,735.8,1645.6,746.1z"/>
			</g>
			<g class="two col11">
				<path fill="#9DCAD1" stroke="#38315F" stroke-width="0.736" stroke-miterlimit="10" d="M617,873.3c0,7.6-27.3,7.6-27.3,0s6.1-13.7,13.7-13.7C611,859.7,617,865.7,617,873.3z"/>
			</g>
			<g class="one col5">
				<path fill="#9DCAD1" stroke="#38315F" stroke-width="2.2773" stroke-miterlimit="10" d="M1434.5,834.2c0,26.1-94.8,26.1-94.8,0s21.2-47.5,47.5-47.5C1413.1,786.7,1434.5,807.9,1434.5,834.2z"/>
			</g>
			<g class="five col25">
				<path fill="#9DCAD1" stroke="#38315F" stroke-width="1.816" stroke-miterlimit="10" d="M617.9,1064.8c0,18.6-67.5,18.6-67.5,0s15-44.4,33.7-44.4C602.8,1020.4,617.9,1046.2,617.9,1064.8z"/>
			</g>
			<g class="four col21">
				<path fill="#9DCAD1" stroke="#38315F" stroke-width="0.8044" stroke-miterlimit="10" d="M1444.2,930.3c0,9.3-33.5,9.3-33.5,0s7.4-22.1,16.7-22.1C1436.7,908.3,1444.2,921,1444.2,930.3z"/>
			</g>
			<g class="three col16">
				<path fill="#9DCAD1" stroke="#38315F" stroke-width="1.5175" stroke-miterlimit="10" d="M1463.2,83c0,15.6-56.4,15.6-56.4,0s12.6-37.1,28.2-37.1C1450.7,45.9,1463.2,67.4,1463.2,83z"/>
			</g>
			<g class="two col10">
				<path fill="#9DCAD1" stroke="#38315F" stroke-width="1.5175" stroke-miterlimit="10" d="M394.2,381.5c0,15.6-56.4,15.6-56.4,0s12.6-37.1,28.2-37.1C381.7,344.4,394.2,365.9,394.2,381.5z"/>
			</g>
			<g class="one col4">
				<path fill="#9DCAD1" stroke="#38315F" stroke-width="0.9616" stroke-miterlimit="10" d="M1884.2,47.3c0,9.8-35.7,9.8-35.7,0s8-23.5,17.8-23.5C1876.2,23.7,1884.2,37.3,1884.2,47.3z"/>
			</g>
			<g class="five col24">
				<path fill="#9DCAD1" stroke="#38315F" stroke-width="0.5399" stroke-miterlimit="10" d="M2066.9,28.2c0,5.5-20,5.5-20,0S2051.5,15,2057,15C2062.5,15.1,2066.9,22.7,2066.9,28.2z"/>
			</g>
			<g class="four col20">
				<path fill="#9DCAD1" stroke="#38315F" stroke-width="2.9105" stroke-miterlimit="10" d="M727.3,1146.5c0,29.8-108.2,29.8-108.2,0s24.2-140.5,54.1-140.5C703.2,1006,727.3,1116.7,727.3,1146.5z"/>
			</g>
			<g class="three col15">
				<path fill="#9DCAD1" stroke="#38315F" stroke-width="2.2499" stroke-miterlimit="10" d="M753.6,10.1c0,23-83.6,23-83.6,0s18.8-108.6,41.8-108.6S753.6-12.9,753.6,10.1z"/>
			</g>
			<g class="two col9">
				<path fill="#9DCAD1" stroke="#38315F" stroke-width="0.801" stroke-miterlimit="10" d="M1140.6,147c0,8.3-29.8,8.3-29.8,0s6.6-38.6,14.9-38.6C1133.9,108.4,1140.6,138.8,1140.6,147z"/>
			</g>
			<g class="one col3">
				<path fill="#9DCAD1" stroke="#38315F" stroke-width="2.214" stroke-miterlimit="10" d="M1566.3,873.7c0,25.5-92.2,25.5-92.2,0s20.6-119.6,46-119.6C1545.7,754.1,1566.3,848.4,1566.3,873.7z"/>
			</g>
			<g class="five col27">
				<path fill="#9DCAD1" stroke="#38315F" stroke-width="0.9258" stroke-miterlimit="10" d="M588.5,841.4c0,9.5-34.4,9.5-34.4,0s7.7-44.7,17.3-44.7C580.7,796.8,588.5,832,588.5,841.4z"/>
			</g>
			<g class="four col19">
				<path fill="#9DCAD1" stroke="#38315F" stroke-width="1.0077" stroke-miterlimit="10" d="M1649.8,1015.7c0,11.7-41.9,11.7-41.9,0s9.4-54.4,21.1-54.4C1640.4,961.1,1649.8,1004,1649.8,1015.7z"/>
			</g>
			<g class="three col14">
				<path fill="#9DCAD1" stroke="#38315F" stroke-width="0.3278" stroke-miterlimit="10" d="M1843,850.1c0,3.7-13.6,3.7-13.6,0s3.1-17.8,6.8-17.8C1840,832.3,1843,846.4,1843,850.1z"/>
			</g>
			<g class="two col8">
				<path fill="#9DCAD1" d="M1538,45.6c0,17.7-63.9,17.7-63.9,0s14.4-83.1,32-83.1S1538,28.1,1538,45.6z"/>
			</g>
			<g class="one col2">
				<path fill="#9DCAD1" stroke="#38315F" stroke-width="0.8466" stroke-miterlimit="10" d="M2079.2,276.8c0,8.7-31.5,8.7-31.5,0s7-15.7,15.7-15.7C2072.1,261,2079.2,268.2,2079.2,276.8z"/>
			</g>
			<g class="five col23">
				<path fill="#9DCAD1" stroke="#38315F" stroke-width="1.5175" stroke-miterlimit="10" d="M2274.7,335c0,15.6-56.4,15.6-56.4,0s12.6-37.1,28.2-37.1C2262.2,297.9,2274.7,319.4,2274.7,335z"/>
			</g>
			<g class="four col18">
				<path fill="#9DCAD1" stroke="#38315F" stroke-width="1.5175" stroke-miterlimit="10" d="M131.7,1099.6c0,12.9-46.7,12.9-46.7,0s10.4-30.7,23.3-30.7C121.3,1068.9,131.7,1086.7,131.7,1099.6z"/>
			</g>
			<g class="three col13">
				<path fill="#9DCAD1" d="M193.6,1068.7c0,14.7-52.9,14.7-52.9,0s11.9-68.8,26.5-68.8C181.7,999.9,193.6,1054.2,193.6,1068.7z"/>
			</g>
			<g class="two col7">
				<path fill="#9DCAD1" stroke="#38315F" stroke-width="1.5175" stroke-miterlimit="10" d="M414.8,446c0,15.6-56.4,15.6-56.4,0s12.6-37.1,28.2-37.1C402.3,408.9,414.8,430.4,414.8,446z"/>
			</g>
			<g class="one col1">
				<path fill="#9DCAD1" d="M489.6,408.6c0,17.7-63.9,17.7-63.9,0s14.4-83.1,32-83.1C475.3,325.5,489.6,391.1,489.6,408.6z"/>
			</g>
			<g class="five tree17">
				<path fill="#B0438C" d="M769.4,1091.2c0,3.7-15.5,3.9-15.5,0s0-23.2,0-23.2h15.5C769.4,1068,769.4,1087.5,769.4,1091.2z"/>
				<polygon fill="#F6F3BD" points="727.7,1074.2 761.6,971.3 795.5,1074.2"/>
				<path fill="#38315F" d="M761.6,976.6l15.7,47.9l15.7,47.9h-31.6h-31.6l15.7-47.9L761.6,976.6 M761.6,965.9l-3.2,9.8l-15.7,47.9l-15.7,47.9l-1.5,4.4h4.7h31.6h31.6h4.7l-1.5-4.4l-15.7-47.9l-15.7-47.9L761.6,965.9L761.6,965.9z"/>
			</g>
			<g class="four tree13">
				<polygon fill="#F6F3BD" points="817.8,1154.5 865.5,1009.1 913.4,1154.5"/>
				<path fill="#38315F" d="M865.5,1016.7l22.2,67.6l22.2,67.6h-44.6h-44.6l22.2-67.6L865.5,1016.7 M865.5,1001.5l-4.6,13.8l-22.2,67.6l-22.2,67.6l-2.1,6.2h6.6h44.6h44.6h6.6l-2.1-6.2l-22.2-67.6l-22.2-67.6L865.5,1001.5L865.5,1001.5z"/>
			</g>
			<g class="three tree9">
				<path fill="#B0438C" d="M1380,939.7c0,2-8.2,2-8.2,0s0-12.3,0-12.3h8.2C1380,927.5,1380,937.9,1380,939.7z"/>
				<polygon fill="#F6F3BD" points="1357.8,930.7 1376,876.1 1393.9,930.7"/>
				<path fill="#38315F" d="M1376,879l8.4,25.5l8.4,25.5H1376h-16.8l8.4-25.5L1376,879 M1376,873.3l-1.7,5.2l-8.4,25.5l-8.4,25.5l-0.8,2.4h2.5h16.8h16.8h2.5l-0.8-2.4l-8.4-25.5l-8.4-25.5L1376,873.3L1376,873.3z"/>
			</g>
			<g class="one tree3">
				<path fill="#B0438C" d="M1863.6,913.7c0,2.8-11.7,2.9-11.7,0s0-17.4,0-17.4h11.7C1863.6,896.5,1863.6,911,1863.6,913.7z"/>
				<polygon fill="#F6F3BD" points="1832.7,901.1 1857.9,824.2 1883.2,901.1"/>
				<path fill="#38315F" d="M1857.9,828.2l11.8,35.7l11.8,35.7H1858h-23.5l11.8-35.7L1857.9,828.2 M1857.9,820.2l-2.4,7.3l-11.8,35.7l-11.8,35.7l-1.1,3.2h3.4h23.5h23.5h3.4l-1.1-3.2l-11.8-35.7l-11.8-35.7L1857.9,820.2L1857.9,820.2z"/>
			</g>
			<g class="five tree16">
				<path fill="#B0438C" d="M1406.8,31.2c0,2.5-10.6,2.6-10.6,0s0-16,0-16h10.6C1406.8,15.2,1406.8,28.8,1406.8,31.2z"/>
				<polygon fill="#F6F3BD" points="1377.9,19.7 1401.4,-51.4 1424.7,19.7"/>
				<path fill="#38315F" d="M1401.4-47.7l10.9,33.1l10.9,33.1h-21.8h-21.8l10.9-33.1L1401.4-47.7 M1401.4-55.2l-2.2,6.8l-10.9,33.1l-10.9,33.1l-1,3h3.2h21.8h21.8h3.2l-1-3l-10.9-33.1l-10.9-33.1L1401.4-55.2L1401.4-55.2z"/>
			</g>
			<g class="four tree12">
				<path fill="#B0438C" d="M259.4,485.7c0,2.5-10.6,2.6-10.6,0s0-16,0-16h10.6C259.4,469.7,259.4,483.3,259.4,485.7z"/>
				<polygon fill="#F6F3BD" points="230.5,474.2 254,403.1 277.3,474.2"/>
				<path fill="#38315F" d="M254,406.8l10.9,33.1l10.9,33.1H254h-21.8l10.9-33.1L254,406.8 M254,399.3l-2.2,6.8l-10.9,33.1L230,472.3l-1,3h3.2H254h21.8h3.2l-1-3l-10.9-33.1l-10.9-33.1L254,399.3L254,399.3z"/>
			</g>
			<g class="three tree8">
				<path fill="#B0438C" d="M1335,103c0,5.5-23,5.8-23,0s0-34.4,0-34.4h23C1335,68.6,1335,97.5,1335,103z"/>
				<polygon fill="#F6F3BD" points="1273.2,77.9 1323.6,-74.8 1373.8,77.9"/>
				<path fill="#38315F" d="M1323.6-66.7l23.5,71.1l23.5,71.1h-46.8H1277l23.5-71.1L1323.6-66.7 M1323.6-82.8l-4.7,14.5l-23.5,71.1l-23.5,71.1l-2.2,6.6h6.9h46.8h46.8h6.9l-2.2-6.6l-23.5-71.1l-23.5-71.1L1323.6-82.8L1323.6-82.8z"/>
			</g>
			<g class="two tree5">
				<path fill="#B0438C" d="M1806.4,747.7c0,3.9-16.3,4.1-16.3,0s0-24.4,0-24.4h16.3C1806.4,723.4,1806.4,743.8,1806.4,747.7z"/>
				<polygon fill="#F6F3BD" points="1762.7,729.9 1798.3,621.8 1833.9,729.9"/>
				<path fill="#38315F" d="M1798.3,627.6l16.6,50.3l16.6,50.3h-33.1h-33.1l16.6-50.3L1798.3,627.6 M1798.3,616.2l-3.3,10.3l-16.6,50.3l-16.6,50.3l-1.6,4.7h4.9h33.1h33.1h4.9l-1.6-4.7l-16.6-50.3l-16.6-50.3L1798.3,616.2L1798.3,616.2z"/>
			</g>
			<g class="one tree2">
				<path fill="#B0438C" d="M328.6,617.5c0,5.5-23,5.8-23,0s0-34.4,0-34.4h23C328.6,583.1,328.6,612,328.6,617.5z"/>
				<polygon fill="#F6F3BD" points="266.8,592.4 317.2,439.7 367.4,592.4"/>
				<path fill="#38315F" d="M317.2,447.8l23.5,71.1l23.5,71.1h-46.8h-46.8l23.5-71.1L317.2,447.8 M317.2,431.7l-4.7,14.5L289,517.3l-23.5,71.1l-2.2,6.6h6.9H317h46.8h6.9l-2.2-6.6L345,517.3l-23.5-71.1L317.2,431.7L317.2,431.7z"/>
			</g>
			<g class="five tree15">
				<path fill="#B0438C" d="M2028.7,5.6c0,2.2-9.2,2.3-9.2,0s0-13.9,0-13.9h9.2C2028.7-8.2,2028.7,3.4,2028.7,5.6z"/>
			</g>
			<g class="four tree11">
				<path fill="#B0438C" d="M1854,7.8c0,4.1-17.3,4.3-17.3,0s0-25.7,0-25.7h17.3C1854-18,1854,3.6,1854,7.8z"/>
			</g>
			<g class="three tree7">
				<path fill="#B0438C" d="M1791.4,61.3c0,2.8-11.6,2.9-11.6,0s0-17.3,0-17.3h11.6C1791.4,43.9,1791.4,58.6,1791.4,61.3z"/>
				<polygon fill="#F6F3BD" points="1760.4,48.6 1785.6,-28.2 1810.9,48.6"/>
				<path fill="#38315F" d="M1785.6-24.2l11.7,35.7l11.7,35.7h-23.6h-23.6l11.7-35.7L1785.6-24.2 M1785.6-32.2l-2.3,7.3l-11.7,35.7l-11.7,35.7l-1.1,3.3h3.5h23.6h23.6h3.5l-1.1-3.3l-11.7-35.7l-11.7-35.7L1785.6-32.2L1785.6-32.2z"/>
			</g>
			<g class="two tree4">
				<path fill="#B0438C" d="M1791.4,61.3c0,2.8-11.6,2.9-11.6,0s0-17.3,0-17.3h11.6C1791.4,43.9,1791.4,58.6,1791.4,61.3z"/>
				<polygon fill="#F6F3BD" points="1760.4,48.6 1785.6,-28.2 1810.9,48.6"/>
				<path fill="#38315F" d="M1785.6-24.2l11.7,35.7l11.7,35.7h-23.6h-23.6l11.7-35.7L1785.6-24.2 M1785.6-32.2l-2.3,7.3l-11.7,35.7l-11.7,35.7l-1.1,3.3h3.5h23.6h23.6h3.5l-1.1-3.3l-11.7-35.7l-11.7-35.7L1785.6-32.2L1785.6-32.2z"/>
			</g>
			<g class="one tree1">
				<path fill="#B0438C" d="M2218.3,283.2c0,2.5-10.6,2.6-10.6,0s0-16,0-16h10.6C2218.3,267.2,2218.3,280.8,2218.3,283.2z"/>
				<polygon fill="#F6F3BD" points="2189.4,271.7 2212.9,200.6 2236.2,271.7"/>
				<path fill="#38315F" d="M2212.9,204.3l10.9,33.1l10.9,33.1h-21.8h-21.8l10.9-33.1L2212.9,204.3 M2212.9,196.8l-2.2,6.8l-10.9,33.1l-10.9,33.1l-1,3h3.2h21.8h21.8h3.2l-1-3l-10.9-33.1l-10.9-33.1L2212.9,196.8L2212.9,196.8z"/>
			</g>
			<g class="five tree14">
				<path fill="#B0438C" d="M2146.5,355c0,5.5-23,5.8-23,0s0-34.4,0-34.4h23C2146.5,320.6,2146.5,349.5,2146.5,355z"/>
				<polygon fill="#F6F3BD" points="2084.7,329.9 2135.1,177.2 2185.3,329.9"/>
				<path fill="#38315F" d="M2135.1,185.3l23.5,71.1l23.5,71.1h-46.8h-46.8l23.5-71.1L2135.1,185.3 M2135.1,169.2l-4.7,14.5l-23.5,71.1l-23.5,71.1l-2.2,6.6h6.9h46.8h46.8h6.9l-2.2-6.6l-23.5-71.1l-23.5-71.1L2135.1,169.2L2135.1,169.2z"/>
			</g>
			<g class="four tree10">
				<path fill="#B0438C" d="M85,1056.8c0,2.1-8.8,2.2-8.8,0s0-13.2,0-13.2H85C85,1043.5,85,1054.8,85,1056.8z"/>
				<polygon fill="#F6F3BD" points="61,1047.2 80.5,988.4 99.8,1047.2"/>
				<path fill="#38315F" d="M80.5,991.4l9,27.4l9,27.4h-18h-18l9-27.4L80.5,991.4 M80.5,985.2l-1.8,5.6l-9,27.4l-9,27.4l-0.8,2.5h2.6h18h18h2.6l-0.8-2.5l-9-27.4l-9-27.4L80.5,985.2L80.5,985.2z"/>
			</g>
			<g class="three tree6">
				<polygon fill="#F6F3BD" points="-25.6,1095.4 16.1,969 57.7,1095.4"/>
				<path fill="#38315F" d="M16.1,975.7l19.5,58.8l19.5,58.8H16.3h-38.7l19.5-58.8L16.1,975.7 M16.1,962.4l-3.9,12l-19.5,58.8l-19.5,58.8l-1.8,5.5h5.7h38.7h38.7h5.7l-1.8-5.5l-19.5-58.8l-19.5-58.8L16.1,962.4L16.1,962.4z"/>
			</g>
			<g class="two column2">
				<path fill="#5BB3E2" d="M451.2,993.2c0-4.4-6.5-8-14.5-8s-14.5,3.6-14.5,8l-9.1,209.6h46.6L451.2,993.2z"/>
				<path fill="#4470B3" d="M458.4,1070.9c-2.1-0.7-4.1,0.6-4.7,2.9v0.1c-1.1,2.3-5.7,10.8-16.8,10.8c-11.9,0-16.7-9.5-17.4-11.3c-0.6-1.7-1.9-2.8-3.6-2.8c-2.2,0-3.9,1.9-3.9,4.4c0,1,0.3,1.8,0.7,2.5c1.2,2.8,7.9,16.3,24.2,16.3c16.1,0,22.5-13.2,23.7-16.3c0.3-0.4,0.4-0.7,0.6-1.2C461.6,1074.3,460.4,1071.6,458.4,1070.9z"/>
				<path fill="#4470B3" d="M429.6,1076.7c0,0,1.4,2.1,6.9,2.1s6.5-2.1,6.5-2.1s0.7-16-6.8-16C428.8,1060.7,429.6,1076.7,429.6,1076.7z"/>
				<path fill="#B04C95" d="M439,813.6c0,0-4-1.5,0-2.6c0,0-3.2-6.2,0.6-7.3c3.7-1.2,6.8-0.1,6.1,6.1s0.1,6.1,1.1,7.5s1.2,4,0,6.2s1.4,3.6-0.4,7.7s-6.2,6.5-1.9,15.2c1.8,3.9-2.6,4-2.6,4s-1,1.2-1.1,3.2c-0.1,2.1,4.6,1.9,4.7,5.5s-4.1,4-4.3,4.6c-0.1,0.7-0.1,3.5-0.1,3.5l-2.3,1.2l-3.3-1.5v-3.5c0,0-5-1.5-4.8-4.7c0.1-3.2,4.3-3.7,5-4.6c0.7-0.8-0.6-3.2-1.1-3.6c-0.4-0.6-5.2-0.4-7.2-3.9c-1.9-3.5-1.7-7.2,2.9-10.9c4.6-3.6,8.8-5.2,8.8-8.7s-0.1-4-1.1-4s-3.3,2.1-7.3,1.7s-6.8-3-6.8-3s-4.8,4-6.5-6.6s-1.8-10.2-0.4-10.5c1.7-0.3,1.1,1.8,5,6.2s11,6.8,13.5,6.3C437.6,816.7,439,813.6,439,813.6z"/>
				<polygon fill="#00B4E5" points="437.2,874.3 421.6,867.9 421.6,860.2 437.2,866.6"/>
				<polygon fill="#4674B7" points="437.2,874.3 452.8,867.9 452.8,860.2 437.2,866.6"/>
				<path fill="#4674B7" d="M421.6,873.7v14.5c0,0,14.9,13.8,31.1,0.8v-15.5l-15.2,6.3L421.6,873.7z"/>
				<path fill="#00B4E5" d="M447.1,891c0-3-4.6-5.5-10.2-5.5c-5.7,0-10.2,2.5-10.2,5.5l-6.3,147h32.7L447.1,891z"/>
			</g>
			<g class="one column1">
				<polygon fill="#4470B3" points="404.6,215.4 410.6,224.3 478.6,224.3 483.5,215.4"/>
				<polygon fill="#5BB3E2" points="396.1,231.4 410.6,224.3 478.6,224.3 492.8,231.4"/>
				<path fill="#5BB3E2" d="M458.7-1.3c0-4.4-6.5-8-14.5-8s-14.5,3.6-14.5,8l-9.1,209.6h46.6L458.7-1.3z"/>
				<rect x="404.6" y="206.6" fill="#5BB3E2" width="78.8" height="8.8"/>
				<rect x="396.1" y="231.4" fill="#4470B3" width="96.7" height="9.9"/>
				<path fill="#4470B3" d="M510,283.1l-10.2-32.7H387.7l-10.2,32.7c-0.3,0.4-0.4,1-0.4,1.4c0,6.9,29.8,12.4,66.7,12.4s66.7-5.5,66.7-12.4C510.4,284,510.2,283.5,510,283.1z"/>
				<path fill="#4470B3" d="M465.9,76.4c-2.1-0.7-4.1,0.6-4.7,2.9v0.1c-1.1,2.3-5.7,10.8-16.8,10.8c-11.9,0-16.7-9.5-17.4-11.3c-0.6-1.7-1.9-2.8-3.6-2.8c-2.2,0-3.9,1.9-3.9,4.4c0,1,0.3,1.8,0.7,2.5c1.2,2.8,7.9,16.3,24.2,16.3c16.1,0,22.5-13.2,23.7-16.3c0.3-0.4,0.4-0.7,0.6-1.2C469.1,79.8,467.9,77.1,465.9,76.4z"/>
				<path fill="#4470B3" d="M437.1,82.2c0,0,1.4,2.1,6.9,2.1s6.5-2.1,6.5-2.1s0.7-16-6.8-16C436.3,66.2,437.1,82.2,437.1,82.2z"/>
				<path fill="#4470B3" d="M436.9,103.8c0,0,6.9,1.9,13.5,0l3.6,24.3h-19.5L436.9,103.8z"/>
				<polygon fill="#4470B3" points="424.8,173.5 424.8,205.4 432.5,205.4 432.5,184.7 440.1,184.7 440.1,205.4 448.1,205.4 448.1,184.7 455.3,184.7 455.3,205.4 463.6,205.4 463.6,173.5"/>
				<path fill="#00B4E5" d="M454.6-103.4c0-3-4.6-5.5-10.2-5.5c-5.7,0-10.2,2.5-10.2,5.5l-6.3,147h32.7L454.6-103.4z"/>
			</g>
			<g class="five bourse">
				<polygon fill="#00B4E5" points="1448.9,228.8 1448.8,228.1 1447.6,263.8 1448.8,263.8 1448.9,263.8 1450.1,263.8"/>
				<rect x="1430.8" y="382.7" fill="#B04C95" width="35.5" height="3"/>
				<polygon fill="#373464" points="1471.4,389.5 1425.6,389.5 1430.8,385.7 1466.2,385.7"/>
				<rect x="1290.9" y="315.4" fill="#00B4E5" width="124.8" height="25.4"/>
				<path fill="#4674B7" d="M1358.2,319.4c-2.5,0-4.5,1.2-4.5,2.7v14.8h8.8V322C1362.7,320.6,1360.6,319.4,1358.2,319.4z"/>
				<path fill="#00B4E5" d="M1358.2,350.3c-3.5,0-6.3,6-6.3,7.6v14.5h12.7v-14.5C1364.5,356.2,1361.7,350.3,1358.2,350.3z"/>
				<path fill="#4674B7" d="M1379.7,319.4c-2.5,0-4.5,1.2-4.5,2.7v14.8h8.8V322C1384,320.6,1382,319.4,1379.7,319.4z"/>
				<path fill="#00B4E5" d="M1379.7,350.3c-3.5,0-6.3,6-6.3,7.6v14.5h12.7v-14.5C1386,356.2,1383.2,350.3,1379.7,350.3z"/>
				<path fill="#4674B7" d="M1315.3,319.4c-2.5,0-4.5,1.2-4.5,2.7v14.8h8.8V322C1319.8,320.6,1317.7,319.4,1315.3,319.4z"/>
				<path fill="#00B4E5" d="M1315.3,350.3c-3.5,0-6.3,6-6.3,7.6v14.5h12.7v-14.5C1321.6,356.2,1318.8,350.3,1315.3,350.3z"/>
				<path fill="#4674B7" d="M1336.8,319.4c-2.5,0-4.5,1.2-4.5,2.7v14.8h8.8V322C1341.1,320.6,1339.1,319.4,1336.8,319.4z"/>
				<path fill="#00B4E5" d="M1336.8,350.3c-3.5,0-6.3,6-6.3,7.6v14.5h12.7v-14.5C1342.9,356.2,1340.3,350.3,1336.8,350.3z"/>
				<path fill="#4674B7" d="M1400.8,319.4c-2.5,0-4.5,1.2-4.5,2.7v14.8h8.8V322C1405.3,320.6,1403.3,319.4,1400.8,319.4z"/>
				<path fill="#00B4E5" d="M1400.8,350.3c-3.5,0-6.3,6-6.3,7.6v14.5h12.7v-14.5C1407.2,356.2,1404.3,350.3,1400.8,350.3z"/>
				<path fill="#F3F1B6" d="M1301.6,292.7c1.4,0,2.7,0.8,3,2.1h7c0.4-1.2,1.4-2.1,3-2.1c1.4,0,2.7,0.8,3,2.1h6.3c0.4-1.2,1.4-2.1,3-2.1c1.4,0,2.7,0.8,3,2.1h7c0.4-1.2,1.4-2.1,3-2.1c1.4,0,2.7,0.8,3,2.1h5.5c0.4-1.2,1.4-2.1,3-2.1c1.4,0,2.7,0.8,3,2.1h6.5c0.4-1.2,1.4-2.1,3-2.1c1.4,0,2.7,0.8,3,2.1h7c0.4-1.2,1.4-2.1,3-2.1c1.4,0,2.7,0.8,3,2.1h6.3c0.4-1.2,1.4-2.1,3-2.1c1.4,0,2.7,0.8,3,2.1h7c0.4-1.2,1.4-2.1,3-2.1s2.7,0.8,3,2.1h4.7l-5.5-5.7h-113.5v5.7h6.3C1298.9,293.8,1300,292.7,1301.6,292.7z"/>
				<path fill="#B04C95" d="M1410,294.9h-4.7c0,0.1,0,0.4,0,0.7v5.7h-6.2v-5.7c0-0.1,0-0.4,0-0.7h-7c0,0.1,0,0.4,0,0.7v5.7h-6.2v-5.7c0-0.1,0-0.4,0-0.7h-6.3c0,0.1,0,0.4,0,0.7v5.7h-6.3v-5.7c0-0.1,0-0.4,0-0.7h-7c0,0.1,0,0.4,0,0.7v5.7h-6.2v-5.7c0-0.1,0-0.4,0-0.7h-6.5c0,0.1,0,0.4,0,0.7v5.7h-6.2v-5.7c0-0.1,0-0.4,0-0.7h-5.5c0,0.1,0,0.4,0,0.7v5.7h-6.2v-5.7c0-0.1,0-0.4,0-0.7h-7c0,0.1,0,0.4,0,0.7v5.7h-6.3v-5.7c0-0.1,0-0.4,0-0.7h-6.3c0,0.1,0,0.4,0,0.7v5.7h-6.2v-5.7c0-0.1,0-0.4,0-0.7h-7c0,0.1,0,0.4,0,0.7v5.7h-6.2v-5.7c0-0.1,0-0.4,0-0.7h-6.3v16.8h124.8L1410,294.9z"/>
				<path fill="#4674B7" d="M1294.1,319.4c-2.5,0-4.5,1.2-4.5,2.7v14.8h8.8V322C1298.4,320.6,1296.5,319.4,1294.1,319.4z"/>
				<path fill="#00B4E5" d="M1294.1,350.3c-3.5,0-6.3,6-6.3,7.6v14.5h12.7v-14.5C1300.2,356.2,1297.5,350.3,1294.1,350.3z"/>
				<rect x="1484.7" y="315.4" fill="#00B4E5" width="124.8" height="25.4"/>
				<path fill="#4674B7" d="M1542.3,319.4c2.5,0,4.5,1.2,4.5,2.7v14.8h-8.8V322C1537.8,320.6,1539.9,319.4,1542.3,319.4z"/>
				<path fill="#00B4E5" d="M1542.3,350.3c3.5,0,6.3,6,6.3,7.6v14.5h-12.7v-14.5C1536,356.2,1538.8,350.3,1542.3,350.3z"/>
				<path fill="#4674B7" d="M1520.8,319.4c2.5,0,4.5,1.2,4.5,2.7v14.8h-8.8V322C1516.5,320.6,1518.3,319.4,1520.8,319.4z"/>
				<path fill="#00B4E5" d="M1520.8,350.3c3.5,0,6.3,6,6.3,7.6v14.5h-12.7v-14.5C1514.5,356.2,1517.3,350.3,1520.8,350.3z"/>
				<path fill="#4674B7" d="M1585.2,319.4c2.5,0,4.5,1.2,4.5,2.7v14.8h-9V322C1580.7,320.6,1582.8,319.4,1585.2,319.4z"/>
				<path fill="#00B4E5" d="M1585.2,350.3c3.5,0,6.3,6,6.3,7.6v14.5h-12.7v-14.5C1578.9,356.2,1581.7,350.3,1585.2,350.3z"/>
				<path fill="#4674B7" d="M1563.7,319.4c2.5,0,4.5,1.2,4.5,2.7v14.8h-8.8V322C1559.4,320.6,1561.3,319.4,1563.7,319.4z"/>
				<path fill="#00B4E5" d="M1563.7,350.3c3.5,0,6.3,6,6.3,7.6v14.5h-12.7v-14.5C1557.5,356.2,1560.2,350.3,1563.7,350.3z"/>
				<path fill="#4674B7" d="M1499.7,319.4c2.5,0,4.5,1.2,4.5,2.7v14.8h-8.8V322C1495.2,320.6,1497.2,319.4,1499.7,319.4z"/>
				<path fill="#00B4E5" d="M1499.7,350.3c3.5,0,6.3,6,6.3,7.6v14.5h-12.7v-14.5C1493.3,356.2,1496.2,350.3,1499.7,350.3z"/>
				<path fill="#F3F1B6" d="M1496.1,289.2l-5.5,5.7h4.7c0.4-1.2,1.4-2.1,3-2.1c1.4,0,2.7,0.8,3,2.1h7c0.4-1.2,1.4-2.1,3-2.1c1.4,0,2.7,0.8,3,2.1h6.3c0.4-1.2,1.4-2.1,3-2.1c1.4,0,2.7,0.8,3,2.1h7c0.4-1.2,1.4-2.1,3-2.1c1.4,0,2.7,0.8,3,2.1h6.5c0.4-1.2,1.4-2.1,3-2.1s2.7,0.8,3,2.1h5.5c0.4-1.2,1.4-2.1,3-2.1c1.4,0,2.7,0.8,3,2.1h7c0.4-1.2,1.4-2.1,3-2.1c1.4,0,2.7,0.8,3,2.1h6.3c0.4-1.2,1.4-2.1,3-2.1s2.7,0.8,3,2.1h7c0.4-1.2,1.4-2.1,3-2.1c1.4,0,2.7,0.8,3,2.1h6.3v-5.7H1496.1z"/>
				<path fill="#B04C95" d="M1603.2,294.9c0,0.1,0.1,0.4,0.1,0.7v5.7h-6.2v-5.7c0-0.1,0-0.4,0-0.7h-7c0,0.1,0,0.4,0,0.7v5.7h-6.2v-5.7c0-0.1,0-0.4,0-0.7h-6.3c0,0.1,0,0.4,0,0.7v5.7h-6.2v-5.7c0-0.1,0-0.4,0-0.7h-7c0,0.1,0,0.4,0,0.7v5.7h-6.2v-5.7c0-0.1,0-0.4,0-0.7h-5.5c0,0.1,0,0.4,0,0.7v5.7h-6.3v-5.7c0-0.1,0-0.4,0-0.7h-6.5c0,0.1,0,0.4,0,0.7v5.7h-6.2v-5.7c0-0.1,0-0.4,0-0.7h-7c0,0.1,0,0.4,0,0.7v5.7h-6.2v-5.7c0-0.1,0-0.4,0-0.7h-6.3c0,0.1,0,0.4,0,0.7v5.7h-6.2v-5.7c0-0.1,0-0.4,0-0.7h-7c0,0.1,0,0.4,0,0.7v5.7h-6.3v-5.7c0-0.1,0-0.4,0-0.7h-4.7l-6,16.8h124.8v-16.8H1603.2z"/>
				<path fill="#4674B7" d="M1606.4,319.4c2.5,0,4.5,1.2,4.5,2.7v14.8h-8.8V322C1602.1,320.6,1604,319.4,1606.4,319.4z"/>
				<path fill="#00B4E5" d="M1606.4,350.3c3.5,0,6.3,6,6.3,7.6v14.5H1600v-14.5C1600,356.2,1602.9,350.3,1606.4,350.3z"/>
				<rect x="1428.7" y="340.3" fill="#00B4E5" width="41.1" height="31.5"/>
				<rect x="1425.6" y="389.5" fill="#00B4E5" width="45.6" height="3"/>
				<path fill="#4674B7" d="M1430.8,305.4V341h36.7v-35.6H1430.8z M1445.8,331.1h-8.8v-15c0-1.4,2.1-2.7,4.5-2.7s4.5,1.2,4.5,2.7v15H1445.8z M1461.6,331.1h-9v-15c0-1.4,2.1-2.7,4.5-2.7s4.5,1.2,4.5,2.7V331.1L1461.6,331.1z"/>
				<path fill="#B04C95" d="M1447.7,326.3c0,0-0.7-2.8,0.7-3c1.3-0.1,0.8,1.8,1.2,3c0.4,1.2,2.2,2.3,1.7,4c-0.4,1.7-0.1,1.8-0.5,3c-0.1,1.2,1.4,4.2,1.4,6s-2.7,4.7-2.3,6.9c0.1,2.2,2.1,3.9,1.8,4.9c-0.2,1.1-2.1,9.3-2.1,9.3h-2.2c0,0-2.3-8.8-2.3-9.3s1.4-4.3,1.4-5.8c0-1.3-2.1-2.7-2.1-4.5c0-1.3,2.5-7.4,2.3-8c-0.1-0.5-1.3-2.7-0.4-4.7C1447.7,326.3,1447.7,326.3,1447.7,326.3z"/>
				<path fill="#B04C95" d="M1453.7,375.5c-0.4-4-0.5-9.5,2.5-10.1c3.1-0.5,7.1-0.7,7.1-3.6c0-1.7,3.5-2.3,3.5-2.3h-18.5H1430c0,0,3.5,0.7,3.5,2.3c0,3,4.2,3.1,7.1,3.6c3.1,0.5,3,6.2,2.5,10.1c-0.4,4-12.5,7.4-12.5,7.4h17.8h17.8C1466.2,382.8,1454.1,379.5,1453.7,375.5z"/>
				<polygon fill="#B04C95" points="1466.8,302.6 1431.3,302.6 1434.6,284.8 1463,284.8"/>
				<polygon fill="#F3F1B6" points="1448.6,290 1428.3,302.6 1470,302.6"/>
				<polygon fill="#B04C95" points="1448.8,292.6 1436.7,300 1461.6,300"/>
				<path fill="#B04C95" d="M1453.9,265.6c0-2.5-2.3-4.7-5.2-4.7c-2.9,0-5.2,2.2-5.2,4.7v0.1l0,0v18.9h10.1v-19.2h0.2C1453.9,265.8,1453.9,265.6,1453.9,265.6z"/>
				<path fill="#F3F1B6" d="M1448.9,267.3c-1.2,0-2.1,1.2-2.1,2.7v14.8h4V270C1450.7,268.5,1449.9,267.3,1448.9,267.3z"/>
			</g>
			<g class="four column4">
				<polygon fill="#4674B7" points="966.1,151 973,151 963.8,207.1"/>
				<rect x="962.6" y="91.3" fill="#4674B7" width="26.5" height="5.9"/>
				<rect x="944.6" y="281.7" fill="#4674B7" width="62.2" height="13.5"/>
				<rect x="949.3" y="277.7" fill="#4674B7" width="52.6" height="5.9"/>
				<polygon fill="#00B4E5" points="993.7,269.2 957.4,269.2 960.3,207.1 990.8,207.1"/>
				<polygon fill="#00B4E5" points="987.5,207.5 963.8,207.5 968.9,150.5 985.3,150.5"/>
				<polygon fill="#00B4E5" points="983.4,151 967.9,151 975.7,102.2 982.8,102.2"/>
				<polygon fill="#4674B7" points="968.9,102.2 978.3,102.2 967.9,151.2"/>
				<polygon fill="#00B4E5" points="953.2,80.5 962.6,91.3 989.1,91.3 998.4,80.5"/>
				<polygon fill="#00B4E5" points="949.4,273 952.6,269.2 999.4,269.2 1002,273"/>
				<rect x="966.8" y="227.1" fill="#F3F1B6" width="17.8" height="42.2"/>
			</g>
			<g class="three column3">
				<polygon fill="#4674B7" points="138,-41.1 148.2,-41.1 134.5,42.4"/>
				<rect x="105.9" y="153.6" fill="#4674B7" width="92.6" height="20.1"/>
				<rect x="112.9" y="147.6" fill="#4674B7" width="78.3" height="8.8"/>
				<polygon fill="#00B4E5" points="179.1,134.9 125,134.9 129.3,42.4 174.7,42.4"/>
				<polygon fill="#00B4E5" points="169.8,43 134.5,43 142.1,-41.9 166.6,-41.9"/>
				<polygon fill="#00B4E5" points="113.1,140.6 117.8,134.9 187.6,134.9 191.4,140.6"/>
				<rect x="139" y="72.2" fill="#F3F1B6" width="26.5" height="62.9"/>
			</g>
			<g class="two arc2">
				<rect x="1659" y="802.9" fill="#373464" width="87.9" height="5.6"/>
				<rect x="1654.2" y="819.2" fill="#373464" width="96.9" height="5.6"/>
					<rect x="1659" y="808.5" fill="#00B4E5" width="87.9" height="3.7"/>
					<polygon fill="#00B4E5" points="1655.9,799.2 1659,802.9 1746.9,802.9 1749.3,799.2"/>
					<polygon fill="#00B4E5" points="1654.2,824.7 1657.2,828.5 1748.6,828.5 1751.1,824.7"/>
					<polygon fill="#00B4E5" points="1654.3,919.8 1657.2,914.7 1684.8,914.7 1687.4,919.8"/>
					<polygon fill="#00B4E5" points="1718.3,919.8 1721.3,914.7 1748.6,914.7 1751.1,919.8"/>
					<rect x="1659" y="811.8" fill="#00B4E5" width="12.7" height="3.7"/>
					<rect x="1684" y="811.8" fill="#00B4E5" width="12.7" height="3.7"/>
					<rect x="1709.2" y="811.8" fill="#00B4E5" width="12.7" height="3.7"/>
					<rect x="1734.2" y="811.8" fill="#00B4E5" width="12.7" height="3.7"/>
					<path fill="#B04C95" d="M1657.2,828.5V915h27.7v-60.6c0-0.1,0-14.6,18.3-14.6s18.3,14.3,18.3,14.6v60.5h27.3v-86.5h-91.5v0.1H1657.2z"/>
					<path fill="#F3F1B6" d="M1665.5,835.2c-2,0-3.7,1.1-3.7,2.5v66c0,1.3,1.7,2.5,3.7,2.5s3.7-1.1,3.7-2.5v-66C1669.2,836.3,1667.5,835.2,1665.5,835.2z"/>
					<path fill="#F3F1B6" d="M1676.7,835.2c-2,0-3.7,1.1-3.7,2.5v66c0,1.3,1.7,2.5,3.7,2.5s3.7-1.1,3.7-2.5v-66C1680.3,836.3,1678.7,835.2,1676.7,835.2z"/>
					<path fill="#F3F1B6" d="M1729,835.2c-2,0-3.7,1.1-3.7,2.5v66c0,1.3,1.7,2.5,3.7,2.5s3.7-1.1,3.7-2.5v-66C1732.7,836.3,1731.1,835.2,1729,835.2z"/>
					<path fill="#F3F1B6" d="M1740.3,835.2c-2,0-3.7,1.1-3.7,2.5v66c0,1.3,1.7,2.5,3.7,2.5s3.7-1.1,3.7-2.5v-66C1744,836.3,1742.3,835.2,1740.3,835.2z"/>
				
			</g>
			<g class="one arc1">
				<polygon fill="#00B4E5" points="2157.6,129 2162.6,120.3 2210.2,120.3 2214.6,129"/>
				<path fill="#B04C95" d="M2162.6-28v148.7h47.6V16.5c0-0.2,0-25,31.4-25s31.4,24.7,31.4,25v104h47V-28.1h-157.4V-28z"/>
				<path fill="#F3F1B6" d="M2176.9-16.4c-3.5,0-6.4,1.9-6.4,4.2v113.4c0,2.3,2.9,4.2,6.4,4.2s6.4-1.9,6.4-4.2V-12.2C2183.2-14.5,2180.3-16.4,2176.9-16.4z"/>
				<path fill="#F3F1B6" d="M2196.1-16.4c-3.5,0-6.4,1.9-6.4,4.2v113.4c0,2.3,2.9,4.2,6.4,4.2s6.4-1.9,6.4-4.2V-12.2C2202.3-14.5,2199.6-16.4,2196.1-16.4z"/>
			</g>
		</g>

	</svg>
