<svg version="1.1" id="logotype" xmlns="http://www.w3.org/2000/svg" xmlns:xlink="http://www.w3.org/1999/xlink" x="0px" y="0px"
	 width="240px" height="60px" viewBox="0 0 240 60" enable-background="new 0 0 240 60" xml:space="preserve">
	<g>
		<path fill="#FFFFFF" d="M0.3,44.3v-8.1h6.2v8.1H0.3z"/>
		<path fill="#FFFFFF" d="M24.4,44.9c-2.5,0-4.9-0.4-7.3-1.2s-4.4-1.9-6.1-3.4l2.8-4.8c1.8,1.3,3.6,2.3,5.3,2.9c1.7,0.7,3.4,1,5.1,1
			c1.5,0,2.7-0.3,3.6-0.8c0.9-0.6,1.3-1.4,1.3-2.4c0-1.1-0.5-1.8-1.5-2.3c-1-0.5-2.7-1.1-5-1.7c-1.9-0.5-3.6-1-4.9-1.5
			c-1.4-0.5-2.5-1-3.3-1.7c-0.8-0.6-1.4-1.3-1.8-2.2C12.2,26,12,25,12,23.9c0-1.5,0.3-2.9,0.9-4.1c0.6-1.2,1.4-2.2,2.5-3.1
			c1.1-0.8,2.3-1.5,3.7-2c1.4-0.5,3-0.7,4.6-0.7c2.2,0,4.3,0.3,6.3,1c1.9,0.6,3.7,1.7,5.3,3.1l-3.1,4.6c-1.5-1.1-3-2-4.4-2.5
			c-1.4-0.5-2.8-0.8-4.2-0.8c-1.3,0-2.4,0.3-3.2,0.8c-0.9,0.5-1.3,1.4-1.3,2.5c0,0.5,0.1,1,0.3,1.3c0.2,0.3,0.5,0.6,1,0.9
			c0.5,0.3,1,0.5,1.8,0.8c0.7,0.2,1.6,0.5,2.7,0.8c2,0.5,3.8,1.1,5.2,1.6c1.5,0.5,2.6,1.1,3.6,1.8c0.9,0.7,1.6,1.5,2,2.3
			c0.4,0.9,0.7,2,0.7,3.2c0,2.9-1.1,5.2-3.2,6.9C31,44,28.1,44.9,24.4,44.9z"/>
		<path fill="#FFFFFF" d="M68.8,44.3h-7.6V27.7c0-2.4-0.4-4.1-1.2-5.2c-0.8-1.1-2-1.6-3.5-1.6c-0.8,0-1.5,0.2-2.3,0.5
			c-0.8,0.3-1.5,0.7-2.2,1.3c-0.7,0.5-1.3,1.2-1.9,2c-0.6,0.8-1,1.6-1.2,2.5v17.3h-7.6V14.7h6.8v5.5c1.1-1.9,2.7-3.4,4.8-4.4
			c2.1-1.1,4.4-1.6,7-1.6c1.8,0,3.4,0.3,4.5,1c1.2,0.7,2.1,1.6,2.7,2.7c0.6,1.1,1.1,2.3,1.3,3.7c0.2,1.4,0.4,2.8,0.4,4.2V44.3z"/>
		<path fill="#FFFFFF" d="M75.5,10.5V3H83v7.5H75.5z M75.5,44.3V14.7H83v29.7H75.5z"/>
		<path fill="#FFFFFF" d="M107.7,44.9c-2.3,0-4.4-0.5-6.1-1.6c-1.7-1-3.1-2.4-4.1-4.2v17.3h-7.6V14.7h6.6v5.1
			c1.1-1.7,2.5-3.1,4.2-4.1c1.7-1,3.7-1.5,6-1.5c2,0,3.8,0.4,5.5,1.2c1.7,0.8,3.2,1.9,4.4,3.3c1.2,1.4,2.2,3,2.9,4.9
			c0.7,1.9,1,3.8,1,5.9c0,2.2-0.3,4.2-1,6.1c-0.6,1.9-1.5,3.5-2.7,4.9c-1.2,1.4-2.5,2.5-4.1,3.3C111.3,44.5,109.5,44.9,107.7,44.9z
			 M105.1,38.4c1.1,0,2.2-0.2,3.1-0.7c1-0.5,1.8-1.2,2.5-2c0.7-0.8,1.2-1.8,1.6-2.9c0.4-1.1,0.6-2.2,0.6-3.4c0-1.2-0.2-2.4-0.6-3.5
			c-0.4-1.1-1-2-1.7-2.8c-0.7-0.8-1.6-1.4-2.6-1.9c-1-0.5-2.1-0.7-3.3-0.7c-0.7,0-1.5,0.1-2.2,0.4c-0.8,0.2-1.5,0.6-2.1,1
			c-0.6,0.5-1.2,1-1.7,1.6c-0.5,0.6-0.9,1.3-1.2,2v7c0.7,1.7,1.7,3.1,3.1,4.2C102,37.9,103.5,38.4,105.1,38.4z"/>
		<path fill="#FFFFFF" d="M143.5,44.9c-2.3,0-4.4-0.5-6.1-1.6c-1.7-1-3.1-2.4-4.1-4.2v17.3h-7.6V14.7h6.6v5.1
			c1.1-1.7,2.5-3.1,4.2-4.1c1.7-1,3.7-1.5,6-1.5c2,0,3.8,0.4,5.5,1.2c1.7,0.8,3.2,1.9,4.4,3.3c1.2,1.4,2.2,3,2.9,4.9
			c0.7,1.9,1,3.8,1,5.9c0,2.2-0.3,4.2-1,6.1c-0.6,1.9-1.5,3.5-2.7,4.9c-1.2,1.4-2.5,2.5-4.1,3.3C147.2,44.5,145.4,44.9,143.5,44.9z
			 M141,38.4c1.1,0,2.2-0.2,3.1-0.7c1-0.5,1.8-1.2,2.5-2c0.7-0.8,1.2-1.8,1.6-2.9c0.4-1.1,0.6-2.2,0.6-3.4c0-1.2-0.2-2.4-0.6-3.5
			c-0.4-1.1-1-2-1.7-2.8c-0.7-0.8-1.6-1.4-2.6-1.9c-1-0.5-2.1-0.7-3.3-0.7c-0.7,0-1.5,0.1-2.2,0.4c-0.8,0.2-1.5,0.6-2.1,1
			c-0.6,0.5-1.2,1-1.7,1.6c-0.5,0.6-0.9,1.3-1.2,2v7c0.7,1.7,1.7,3.1,3.1,4.2C137.9,37.9,139.4,38.4,141,38.4z"/>
		<path fill="#FFFFFF" d="M175.4,44.9c-2.4,0-4.5-0.4-6.5-1.2c-1.9-0.8-3.6-1.9-4.9-3.3c-1.4-1.4-2.4-3-3.1-4.9
			c-0.7-1.8-1.1-3.8-1.1-5.8c0-2.1,0.4-4.1,1.1-6c0.7-1.9,1.8-3.5,3.1-4.9c1.4-1.4,3-2.5,5-3.4c1.9-0.8,4.1-1.2,6.5-1.2
			c2.4,0,4.6,0.4,6.5,1.2c1.9,0.8,3.5,1.9,4.9,3.3c1.3,1.4,2.4,3,3.1,4.9c0.7,1.8,1,3.8,1,5.8c0,0.5,0,1,0,1.4c0,0.5-0.1,0.8-0.1,1.1
			h-22.9c0.1,1.2,0.4,2.2,0.8,3.1c0.5,0.9,1,1.7,1.8,2.3c0.7,0.6,1.5,1.1,2.4,1.5c0.9,0.3,1.8,0.5,2.8,0.5c1.5,0,2.9-0.4,4.3-1.1
			c1.3-0.7,2.3-1.7,2.7-2.9l6.5,1.8c-1.1,2.3-2.8,4.1-5.2,5.6C181.6,44.2,178.7,44.9,175.4,44.9z M183.1,27c-0.2-2.2-1-4-2.5-5.3
			c-1.5-1.3-3.2-2-5.3-2c-1,0-2,0.2-2.9,0.5c-0.9,0.4-1.7,0.9-2.3,1.5c-0.7,0.6-1.2,1.4-1.7,2.3c-0.4,0.9-0.7,1.9-0.8,3H183.1z"/>
		<path fill="#FFFFFF" d="M213.1,42.8c-1,0.5-2.3,0.9-3.7,1.4c-1.5,0.5-3,0.7-4.6,0.7c-1.1,0-2-0.1-3-0.4c-0.9-0.3-1.7-0.7-2.4-1.3
			c-0.7-0.6-1.3-1.3-1.7-2.3c-0.4-0.9-0.6-2-0.6-3.4v-17h-3.9v-5.8h3.9V5h7.6v9.6h6.2v5.8h-6.2V35c0,1.1,0.3,1.8,0.8,2.2
			c0.5,0.4,1.2,0.7,2,0.7c0.8,0,1.6-0.1,2.3-0.4c0.8-0.3,1.4-0.5,1.8-0.7L213.1,42.8z"/>
		<path fill="#FFFFFF" d="M228.3,44.9c-2.5,0-4.9-0.4-7.3-1.2c-2.4-0.8-4.4-1.9-6.1-3.4l2.8-4.8c1.8,1.3,3.6,2.3,5.3,2.9
			c1.7,0.7,3.4,1,5.1,1c1.5,0,2.7-0.3,3.6-0.8c0.9-0.6,1.3-1.4,1.3-2.4c0-1.1-0.5-1.8-1.5-2.3c-1-0.5-2.7-1.1-5-1.7
			c-1.9-0.5-3.6-1-4.9-1.5c-1.4-0.5-2.5-1-3.3-1.7c-0.8-0.6-1.4-1.3-1.8-2.2c-0.4-0.8-0.6-1.8-0.6-2.9c0-1.5,0.3-2.9,0.9-4.1
			c0.6-1.2,1.4-2.2,2.5-3.1c1.1-0.8,2.3-1.5,3.7-2c1.4-0.5,3-0.7,4.6-0.7c2.2,0,4.3,0.3,6.3,1c1.9,0.6,3.7,1.7,5.3,3.1l-3.1,4.6
			c-1.5-1.1-3-2-4.4-2.5c-1.4-0.5-2.8-0.8-4.2-0.8c-1.3,0-2.4,0.3-3.2,0.8c-0.9,0.5-1.3,1.4-1.3,2.5c0,0.5,0.1,1,0.3,1.3
			c0.2,0.3,0.5,0.6,1,0.9c0.5,0.3,1,0.5,1.8,0.8c0.7,0.2,1.6,0.5,2.7,0.8c2,0.5,3.8,1.1,5.2,1.6c1.5,0.5,2.6,1.1,3.6,1.8
			c0.9,0.7,1.6,1.5,2,2.3c0.4,0.9,0.7,2,0.7,3.2c0,2.9-1.1,5.2-3.2,6.9C234.9,44,231.9,44.9,228.3,44.9z"/>
	</g>
</svg>
